<svg xmlns="http://www.w3.org/2000/svg" viewBox="0 0 64 64" fill="none">
  <defs>
    <linearGradient id="flameGrad" x1="32" y1="58" x2="32" y2="6" gradientUnits="userSpaceOnUse">
      <stop offset="0%" stop-color="#EF4444"/>
      <stop offset="45%" stop-color="#F59E0B"/>
      <stop offset="85%" stop-color="#22D3EE"/>
      <stop offset="100%" stop-color="#FFFFFF"/>
    </linearGradient>
    <filter id="glow" x="-20%" y="-20%" width="140%" height="140%">
      <feDropShadow dx="0" dy="0" stdDeviation="3" flood-color="#EF4444" flood-opacity="0.6"/>
    </filter>
  </defs>
  <!-- Base Outer Glow Shield -->
  <circle cx="32" cy="32" r="30" fill="#0B1220" stroke="#1F2937" stroke-width="2"/>
  <!-- Tactical Flame Core -->
  <path d="M32 8C33 16 38 20 41 26C45 33 46 41 40 48C36 53 28 53 24 48C18 41 19 33 23 26C26 20 31 16 32 8Z" 
        fill="url(#flameGrad)" filter="url(#glow)"/>
  <!-- Inner Intense Thermal Core -->
  <path d="M32 24C33.5 28 36 31 37 35C38.5 39 37 44 33 46C30 47.5 26.5 46 25 43C23.5 39 25 34 27 31C28.5 28 31 26 32 24Z" 
        fill="#FFFFFF" opacity="0.9"/>
</svg>
